<?xml version="1.0" standalone="no"?>
<!DOCTYPE svg PUBLIC "-//W3C//DTD SVG 20010904//EN"
 "http://www.w3.org/TR/2001/REC-SVG-20010904/DTD/svg10.dtd">
<svg version="1.0" xmlns="http://www.w3.org/2000/svg"
 width="550.000000pt" height="550.000000pt" viewBox="0 0 550.000000 550.000000"
 preserveAspectRatio="xMidYMid meet">

<g transform="translate(0.000000,550.000000) scale(0.100000,-0.100000)"
fill="#000000" stroke="none">
<path d="M2410 5483 c-14 -9 -54 -42 -90 -74 -36 -31 -80 -64 -98 -73 l-32
-17 -95 57 -95 56 -48 -19 -47 -19 -36 -109 c-29 -90 -39 -111 -56 -113 -12
-2 -69 19 -128 47 l-107 50 -89 -44 c-49 -25 -99 -45 -113 -45 -18 0 -48 -28
-126 -120 l-102 -120 -47 0 c-74 -1 -79 -10 -95 -154 -8 -70 -17 -130 -20
-133 -3 -3 -56 4 -118 16 l-112 23 -30 -35 c-17 -19 -46 -45 -65 -57 -18 -13
-39 -37 -46 -54 -12 -28 -11 -34 15 -71 26 -37 28 -49 34 -166 l6 -127 -47
-11 -48 -12 -78 -149 -78 -150 -61 7 c-52 5 -67 3 -104 -18 l-44 -24 0 -146 0
-146 -40 -27 c-29 -19 -40 -33 -40 -52 0 -28 39 -255 46 -266 3 -4 -31 -62
-74 -130 l-79 -123 27 -74 27 -75 -29 -65 c-27 -60 -29 -71 -22 -142 4 -46 2
-104 -6 -148 l-12 -71 45 -78 c44 -75 46 -81 57 -202 11 -116 31 -195 76 -306
l13 -30 132 13 c73 7 134 11 135 10 2 -1 7 -47 13 -102 l10 -100 -39 -40 c-21
-22 -42 -53 -46 -70 -4 -16 -15 -47 -25 -67 -11 -21 -19 -58 -19 -87 l0 -50
75 -52 c53 -37 78 -62 89 -88 8 -20 28 -66 45 -103 l30 -67 89 39 c49 22 94
40 98 40 5 0 49 -89 97 -198 87 -194 89 -198 142 -236 36 -26 58 -50 66 -73 6
-18 14 -33 17 -33 4 -1 88 -5 187 -9 153 -8 189 -13 238 -33 45 -18 59 -29 63
-48 3 -14 12 -36 20 -50 8 -14 31 -57 51 -97 l37 -72 96 -22 c52 -11 153 -41
224 -65 71 -25 133 -41 137 -37 4 4 26 42 49 83 23 41 53 94 66 116 l24 42 87
-19 c62 -14 94 -27 112 -45 13 -14 62 -57 108 -95 l83 -71 29 24 c16 12 53 44
83 70 48 41 93 68 117 68 4 0 29 -47 55 -104 l48 -103 60 -7 c134 -14 187 -8
314 34 l122 41 -4 62 c-3 34 -6 86 -9 115 -4 60 -14 58 130 38 l90 -12 63 58
63 59 67 -58 c37 -31 76 -65 88 -75 21 -18 21 -18 94 174 40 106 75 196 79
200 3 4 25 2 48 -3 40 -11 43 -10 172 65 l131 77 66 -37 67 -37 53 18 c29 10
55 24 58 31 3 7 -26 97 -63 199 -38 102 -63 185 -57 185 6 0 85 -34 175 -75
147 -67 165 -73 176 -59 6 9 33 52 59 94 46 76 47 79 36 121 -15 53 -7 96 24
129 16 18 29 56 45 134 l23 108 -34 37 c-32 33 -34 39 -28 81 4 25 10 70 14
101 l7 56 53 12 c155 35 154 33 84 199 -58 139 -60 130 30 159 59 19 54 10 77
153 8 52 32 157 55 233 22 76 40 143 40 150 0 8 -16 21 -35 30 -19 9 -35 20
-35 24 0 5 11 78 24 163 13 85 23 156 22 157 -1 2 -47 6 -102 9 l-99 7 -44
104 c-24 57 -42 106 -40 107 2 2 37 20 78 41 93 46 127 71 152 111 18 30 18
33 1 72 -16 38 -25 45 -118 87 l-101 46 -1 47 c0 26 -4 98 -7 160 -7 104 -9
113 -29 117 -11 3 -63 12 -115 20 -98 17 -114 26 -127 74 -5 17 3 43 29 90 19
36 45 104 57 151 l22 85 -32 27 -32 26 -51 -23 c-29 -13 -96 -44 -151 -69 -54
-25 -102 -46 -106 -46 -4 0 -17 48 -30 108 -12 59 -24 117 -27 129 -5 23 -19
27 -149 38 l-71 7 -14 125 -13 125 -44 42 c-32 30 -57 44 -94 51 l-51 10 -39
103 c-53 137 -57 139 -229 105 l-124 -24 -41 20 c-41 19 -42 19 -106 0 l-65
-20 -83 52 c-81 50 -85 51 -138 45 -47 -6 -63 -14 -129 -68 l-74 -61 -93 17
-94 18 -6 46 c-4 35 -23 72 -71 145 -36 53 -69 97 -73 97 -4 0 -51 -10 -106
-22 l-99 -22 -61 22 c-73 26 -84 27 -116 5z m1180 -1803 l820 -410 2 -153 c3
-236 0 -257 -43 -257 -11 0 -379 180 -819 400 l-800 400 -800 -400 c-440 -220
-809 -400 -819 -400 -43 0 -51 33 -51 215 0 93 4 177 10 185 12 19 1628 827
1658 829 12 0 391 -184 842 -409z m-170 -485 l670 -335 0 -620 c0 -489 -3
-620 -12 -620 -7 -1 -329 -2 -715 -3 l-703 -2 0 478 0 477 -250 0 -250 0 0
-475 0 -475 -375 0 -375 0 0 620 0 620 668 334 c367 184 668 335 670 335 1 1
304 -150 672 -334z"/>
<path d="M2840 2400 l0 -170 165 0 165 0 0 170 0 170 -165 0 -165 0 0 -170z"/>
</g>
</svg>
